<?xml version="1.0" standalone="no"?>
<!DOCTYPE svg PUBLIC "-//W3C//DTD SVG 20010904//EN"
 "http://www.w3.org/TR/2001/REC-SVG-20010904/DTD/svg10.dtd">
<svg version="1.0" xmlns="http://www.w3.org/2000/svg"
 width="512.000000pt" height="512.000000pt" viewBox="0 0 512.000000 512.000000"
 preserveAspectRatio="xMidYMid meet">
<metadata>
Created by potrace 1.14, written by Peter Selinger 2001-2017
</metadata>
<g transform="translate(0.000000,512.000000) scale(0.100000,-0.100000)"
fill="#000000" stroke="none">
<path d="M1505 4889 c-100 -24 -179 -88 -219 -179 -35 -77 -39 -97 -38 -195 0
-283 191 -543 517 -703 127 -62 149 -68 192 -53 217 76 442 250 541 417 36 61
75 158 88 219 12 53 11 170 -1 228 -16 76 -33 113 -77 163 -70 80 -159 115
-278 110 -65 -3 -90 -9 -151 -39 -41 -20 -93 -54 -115 -77 l-42 -40 -33 31
c-47 44 -107 83 -159 103 -54 21 -169 29 -225 15z"/>
<path d="M4482 4628 c-187 -21 -355 -119 -489 -284 l-32 -39 -18 25 c-38 54
-158 162 -223 201 -109 64 -198 91 -320 97 -122 5 -197 -10 -300 -60 -133 -64
-252 -225 -277 -373 -3 -16 -8 -50 -13 -75 -11 -60 -3 -240 14 -320 8 -36 13
-65 12 -65 -9 -1 -171 -83 -201 -103 -161 -106 -299 -239 -404 -388 -35 -49
-67 -93 -71 -97 -4 -5 -18 9 -31 30 -89 147 -254 321 -393 416 -383 260 -833
305 -1199 120 -289 -146 -463 -413 -522 -803 -13 -87 -13 -375 0 -460 25 -164
73 -346 127 -483 32 -80 57 -105 99 -94 13 4 25 -12 49 -65 31 -66 31 -70 15
-88 -13 -14 -16 -29 -12 -54 5 -33 79 -155 157 -262 48 -63 57 -54 -119 -113
-140 -47 -185 -75 -212 -135 -40 -89 -12 -186 71 -238 14 -9 106 -44 205 -77
99 -34 183 -65 187 -69 4 -4 37 -92 72 -195 36 -103 75 -200 86 -216 76 -102
247 -92 308 19 11 19 41 98 68 175 26 77 50 143 54 147 3 5 37 -12 74 -37 38
-25 71 -45 73 -45 3 0 17 -9 33 -20 48 -34 211 -124 345 -189 137 -67 436
-191 461 -191 29 0 300 113 469 195 217 107 266 135 456 261 544 359 931 830
1112 1350 45 130 90 311 102 414 4 30 9 66 11 80 2 14 4 91 5 171 l1 147 26
12 c53 23 223 142 238 166 11 16 14 35 10 57 -6 30 -2 37 32 68 71 63 71 63
87 49 38 -32 97 16 194 155 93 136 163 292 197 440 27 122 25 335 -4 440 -78
275 -321 436 -610 403z"/>
</g>
</svg>
